<?xml version="1.0" standalone="no"?>
<!DOCTYPE svg PUBLIC "-//W3C//DTD SVG 20010904//EN"
 "http://www.w3.org/TR/2001/REC-SVG-20010904/DTD/svg10.dtd">
<svg version="1.0" xmlns="http://www.w3.org/2000/svg"
 width="64.000000pt" height="64.000000pt" viewBox="0 0 64.000000 64.000000"
 preserveAspectRatio="xMidYMid meet">
<metadata>
Created by potrace 1.16, written by Peter Selinger 2001-2019
</metadata>
<g transform="translate(0.000000,64.000000) scale(0.100000,-0.100000)"
fill="#000000" stroke="none">
<path d="M466 485 l-27 -35 20 -26 c32 -41 44 -97 31 -145 l-12 -42 -53 53
c-33 33 -61 72 -74 104 l-20 51 0 -97 -1 -96 45 -40 45 -40 -32 -13 c-18 -7
-49 -14 -68 -14 -19 0 -50 7 -68 14 l-32 13 45 40 45 40 -1 96 0 97 -20 -51
c-13 -32 -41 -71 -74 -104 l-53 -53 -12 41 c-12 47 -6 81 23 134 l20 36 -22
31 c-26 36 -32 37 -54 13 -51 -56 -72 -176 -45 -263 29 -98 134 -169 248 -169
154 0 259 106 260 260 0 70 -29 149 -67 183 -20 17 -21 17 -47 -18z m65 -69
c39 -86 17 -197 -52 -263 -147 -139 -389 -36 -389 167 0 58 30 140 51 140 12
0 11 -4 -17 -83 -37 -107 31 -229 144 -256 152 -37 290 97 253 245 -7 25 -18
56 -26 68 -15 23 -10 41 7 29 6 -3 19 -24 29 -47z"/>
</g>
</svg>
